<svg xmlns="http://www.w3.org/2000/svg" viewBox="0 0 240 360" role="img"><defs><linearGradient id="gold" x1="0" x2="1"><stop stop-color="#7e5716"/><stop offset=".35" stop-color="#f4d56e"/><stop offset=".7" stop-color="#b98225"/><stop offset="1" stop-color="#68420d"/></linearGradient></defs><g><path d="M54 16h132v58l-66 43-66-43z" fill="#c9302f" stroke="#7a5316" stroke-width="5"/><path d="M92 18h12l18 78-12 7zM116 18h12l6 73-12 8zM140 18h12l-12 69-12 7z" fill="#e89b2d"/><path d="M101 18h10l15 76-10 6zM128 18h10l-6 72-10 7z" fill="#171717"/><circle cx="120" cy="218" r="84" fill="url(#gold)" stroke="#785517" stroke-width="5"/><text x="120" y="190" text-anchor="middle" font-family="Arial,sans-serif" font-weight="700" font-size="20" fill="#5d3f13">ЗА ВЗЯТИЕ</text><text x="120" y="222" text-anchor="middle" font-family="Arial,sans-serif" font-weight="700" font-size="24" fill="#5d3f13">БЕРЛИНА</text><path d="M120 245l7 11 14 2-10 10 3 14-14-7-14 7 3-14-10-10 14-2z" fill="#5d3f13"/><text x="120" y="298" text-anchor="middle" font-family="Arial,sans-serif" font-size="13" fill="#5d3f13">2 МАЯ 1945</text></g></svg>
